<svg width="40" height="40" viewBox="0 0 40 40" fill="none" xmlns="http://www.w3.org/2000/svg">
<path d="M8.33334 31.6667C8.33334 29.8986 8.90402 28.2029 9.91984 26.9526C10.9357 25.7024 12.3134 25 13.75 25H24.5833C26.0199 25 27.3977 25.7024 28.4135 26.9526C29.4293 28.2029 30 29.8986 30 31.6667H19.1667H8.33334ZM8.33334 31.6667V32.5" stroke="black" stroke-width="2" stroke-linecap="round" stroke-linejoin="round"/>
<path d="M18.3333 18.3333C22.0152 18.3333 25 15.3486 25 11.6667C25 7.98477 22.0152 5 18.3333 5C14.6514 5 11.6667 7.98477 11.6667 11.6667C11.6667 15.3486 14.6514 18.3333 18.3333 18.3333Z" stroke="black" stroke-width="2" stroke-linecap="round" stroke-linejoin="round"/>
<path d="M36.3333 31.6667C36.3322 30.1896 35.8406 28.7546 34.9356 27.5872C34.0306 26.4198 32.7635 25.586 31.3333 25.2167" stroke="black" stroke-width="2" stroke-linecap="round" stroke-linejoin="round"/>
<path d="M1.66666 31.5928C1.66777 30.083 2.1594 28.6163 3.06439 27.423C3.96937 26.2297 5.23645 25.3775 6.66666 25" stroke="black" stroke-width="2" stroke-linecap="round" stroke-linejoin="round"/>
<path d="M28 7C29.4303 7.28426 30.698 7.92994 31.6033 8.83524C32.5086 9.74054 33 10.854 33 12C33 13.146 32.5086 14.2595 31.6033 15.1648C30.698 16.0701 29.4303 16.7157 28 17" stroke="black" stroke-width="2" stroke-linecap="round" stroke-linejoin="round"/>
<path d="M8 7C6.56971 7.28426 5.30199 7.92994 4.39669 8.83524C3.49139 9.74054 3 10.854 3 12C3 13.146 3.49139 14.2595 4.39669 15.1648C5.30199 16.0701 6.56971 16.7157 8 17" stroke="black" stroke-width="2" stroke-linecap="round" stroke-linejoin="round"/>
</svg>
